<?xml version="1.0" standalone="no"?>
<!DOCTYPE svg PUBLIC "-//W3C//DTD SVG 20010904//EN"
 "http://www.w3.org/TR/2001/REC-SVG-20010904/DTD/svg10.dtd">
<svg version="1.0" xmlns="http://www.w3.org/2000/svg"
 width="70.000000pt" height="69.000000pt" viewBox="0 0 70.000000 69.000000"
 preserveAspectRatio="xMidYMid meet">

<g transform="translate(0.000000,69.000000) scale(0.100000,-0.100000)"
fill="#000000" stroke="none">
<path d="M84 606 l-34 -34 0 -217 c0 -312 -17 -294 293 -295 l229 0 29 29 29
29 0 229 c-1 310 17 293 -295 293 l-217 0 -34 -34z m497 -22 c23 -25 24 -31
27 -212 4 -221 -3 -257 -53 -278 -42 -17 -378 -20 -421 -4 -52 20 -53 29 -54
258 l0 213 25 24 c24 25 24 25 238 25 l214 0 24 -26z"/>
<path d="M350 455 l-24 -26 27 -27 27 -27 0 23 c0 17 5 23 18 20 25 -5 30
-103 7 -128 -20 -22 -17 -49 8 -64 37 -23 73 29 43 62 -9 11 -16 42 -18 82 -3
58 -5 65 -27 70 -13 3 -27 13 -30 23 -6 16 -9 15 -31 -8z m90 -195 c0 -5 -4
-10 -10 -10 -5 0 -10 5 -10 10 0 6 5 10 10 10 6 0 10 -4 10 -10z"/>
<path d="M237 463 c-12 -12 -7 -50 8 -63 9 -7 15 -29 15 -55 0 -26 -6 -48 -15
-55 -18 -15 -19 -42 -3 -58 35 -35 82 11 54 53 -20 31 -21 99 -1 115 18 15 19
42 3 58 -13 13 -50 16 -61 5z m43 -33 c0 -5 -4 -10 -10 -10 -5 0 -10 5 -10 10
0 6 5 10 10 10 6 0 10 -4 10 -10z m0 -170 c0 -5 -4 -10 -10 -10 -5 0 -10 5
-10 10 0 6 5 10 10 10 6 0 10 -4 10 -10z"/>
</g>
</svg>
