<?xml version="1.0" standalone="no"?>
<!DOCTYPE svg PUBLIC "-//W3C//DTD SVG 20010904//EN"
 "http://www.w3.org/TR/2001/REC-SVG-20010904/DTD/svg10.dtd">
<svg version="1.0" xmlns="http://www.w3.org/2000/svg"
 width="65.000000pt" height="65.000000pt" viewBox="0 0 65.000000 65.000000"
 preserveAspectRatio="xMidYMid meet">

<g transform="translate(0.000000,65.000000) scale(0.100000,-0.100000)"
fill="#000000" stroke="none">
<path d="M94 600 c-12 -4 -31 -21 -43 -36 -20 -25 -21 -37 -21 -236 0 -221 6
-254 49 -278 12 -6 110 -10 246 -10 l227 0 29 29 29 29 0 222 c0 244 -3 259
-62 279 -37 13 -423 14 -454 1z m463 -44 l28 -24 0 -212 c0 -211 0 -212 -24
-231 -21 -17 -42 -19 -242 -19 -212 0 -219 1 -239 22 -19 20 -20 34 -20 230 0
280 -22 258 259 258 207 0 210 0 238 -24z"/>
<path d="M261 453 c-96 -50 -106 -182 -20 -246 38 -28 106 -32 148 -10 96 50
106 182 20 246 -38 28 -106 32 -148 10z m145 -47 c29 -29 34 -41 34 -81 0 -40
-5 -52 -34 -81 -29 -29 -41 -34 -81 -34 -68 0 -115 47 -115 115 0 40 5 52 34
81 29 29 41 34 81 34 40 0 52 -5 81 -34z"/>
<path d="M300 325 c0 -20 5 -25 25 -25 20 0 25 5 25 25 0 20 -5 25 -25 25 -20
0 -25 -5 -25 -25z"/>
</g>
</svg>
